# xmcd
#
# Track frame offsets: 
#        150
#        23061
#        57723
#        75619
#        100565
#        124158
#        143319
#        166504
#        189926
#        209515
#        244175
#
# Disc length: 3895 seconds
#
# Revision: 0
# Processed by: cddbd v1.5.2PL0 Copyright (c) Steve Scherf et al.
# Submitted via: ExactAudioCopy v0.95b4
#
DISCID=850f350b
DTITLE=Sonny Landreth  - Grant Street [LIVE] 
DYEAR=2005
DGENRE=Blues
TTITLE0=Native Stepson 
TTITLE1=Broken Hearted Road 
TTITLE2=Gone Pecan 
TTITLE3=Port Of Calling 
TTITLE4=Blues Attack 
TTITLE5=Z. Rider
TTITLE6=U.S.S. Zydecoldsmobile
TTITLE7=Wind In Denver 
TTITLE8=All About You 
TTITLE9=Pedal To Metal
TTITLE10=Congo Square 
EXTD=
EXTT0=
EXTT1=
EXTT2=
EXTT3=
EXTT4=
EXTT5=
EXTT6=
EXTT7=
EXTT8=
EXTT9=
EXTT10=
PLAYORDER=
